<?xml version="1.0" encoding="utf-8"?>
<?xml-stylesheet type="text/xsl" href="rss1.xsl"?>
<rss version="2.0" xmlns:atom="http://www.w3.org/2005/Atom" xmlns:content="http://purl.org/rss/1.0/modules/content/" xmlns:dc="http://purl.org/dc/elements/1.1/" xmlns:media="http://search.yahoo.com/mrss/">
<channel>
 <title>Getty</title>
 <link>http://www.gettyimg.com/</link>
 <atom:link href="http://www.gettyimg.com/" rel="self" type="application/rss+xml" />

 
                <item>
                <title><![CDATA[【Singles (lossless)】FLAC - Gryffin &amp; Kid Joi - Oceans | Qobuz Hi-Res 24bit / 44.1kHz]]></title>
                <link><![CDATA[https://sharemania.us/threads/gryffin-kid-joi-oceans-qobuz-hi-res-24bit-44-1khz.220300/]]></link>
                <description><![CDATA[<article>
<blockquote class="messageText SelectQuoteContainer ugc baseHtml">
<div style="text-align: center"><img src="https://static.qobuz.com/images/covers/oc/sw/ke6hxhcbvswoc_600.jpg" class="bbCodeImage LbImage" alt="[​IMG]" data-url="https://static.qobuz.com/images/covers/oc/sw/ke6hxhcbvswoc_600.jpg" style=""><br>
<div class="bbCodeBlock bbCodeVfcHH HiddenContent">
<div class="attribution type">Hidden Content:</div>
<blockquote>You must reply before you can see the hidden data contained here.</blockquote>
</div></div>
<div class="messageTextEndMarker">&nbsp;</div>
</blockquote>
</article>]]></description>
                <author><![CDATA[Yennefer]]></author>
                </item>

                
                <item>
                <title><![CDATA[【Singles (lossless)】FLAC - Tom Grennan - How Does It Feel | TIDAL 16bit / 44.1kHz]]></title>
                <link><![CDATA[https://sharemania.us/threads/tom-grennan-how-does-it-feel-tidal-16bit-44-1khz.220302/]]></link>
                <description><![CDATA[<article>
<blockquote class="messageText SelectQuoteContainer ugc baseHtml">
<div style="text-align: center"><img src="https://resources.tidal.com/images/79d947c4/77d8/4991/a2fa/c786f743b213/640x640.jpg" class="bbCodeImage LbImage" alt="[​IMG]" data-url="https://resources.tidal.com/images/79d947c4/77d8/4991/a2fa/c786f743b213/640x640.jpg" style=""><br>
<div class="bbCodeBlock bbCodeVfcHH HiddenContent">
<div class="attribution type">Hidden Content:</div>
<blockquote>You must reply before you can see the hidden data contained here.</blockquote>
</div></div>
<div class="messageTextEndMarker">&nbsp;</div>
</blockquote>
</article>]]></description>
                <author><![CDATA[Yennefer]]></author>
                </item>

                
                <item>
                <title><![CDATA[【MASTER &amp; MASTER RIP】MASTER - Harry Styles - Satellite (Master AAC 1080p)]]></title>
                <link><![CDATA[https://sharemania.us/threads/harry-styles-satellite-master-aac-1080p.220299/]]></link>
                <description><![CDATA[<article>
<blockquote class="messageText SelectQuoteContainer ugc baseHtml">
<div style="text-align: center"><img src="https://i.imgur.com/ZIvghUz.png" class="bbCodeImage LbImage" alt="[​IMG]" data-url="https://i.imgur.com/ZIvghUz.png" style=""><br>
<br>
<div class="ToggleTriggerAnchor bbCodeSpoilerContainer">
<button type="button" class="button bbCodeSpoilerButton ToggleTrigger Tooltip JsOnly" data-target="> .SpoilerTarget"><span>Spoiler: <span class="SpoilerTitle">Mediainfo</span></span></button>
<div class="SpoilerTarget bbCodeSpoilerText">Format : MPEG-4<br>
Format profile : Base Media / Version 2<br>
Codec ID : mp42 (mp42/mp41)<br>
File size : 464 MiB<br>
Duration : 4 min 16 s<br>
Overall bit rate mode : Variable<br>
Overall bit rate : 15.2 Mb/s<br>
Encoded date : UTC 2023-04-28 20:59:34<br>
Tagged date : UTC 2023-04-28 21:02:03<br>
©TIM : 09:59:59:04<br>
©TSC : 24000<br>
©TSZ : 1001<br>
<br>
Video<br>
ID : 1<br>
Format : AVC<br>
Format/Info : Advanced Video Codec<br>
Format profile : Main@L5<br>
Format settings, CABAC : Yes<br>
Format settings, ReFrames : 4 frames<br>
Codec ID : avc1<br>
Codec ID/Info : Advanced Video Coding<br>
Duration : 4 min 16 s<br>
Bit rate mode : Constant<br>
Bit rate : 15.0 Mb/s<br>
Width : 1 920 pixels<br>
Height : 1 330 pixels<br>
Display aspect ratio : 1.444<br>
Frame rate mode : Constant<br>
Frame rate : 23.976 (24000/1001) FPS<br>
Color space : YUV<br>
Chroma subsampling : 4:2:0<br>
Bit depth : 8 bits<br>
Scan type : Progressive<br>
Bits/(Pixel*Frame) : 0.245<br>
Stream size : 458 MiB (99%)<br>
Language : English<br>
Encoded date : UTC 2023-04-28 20:59:36<br>
Tagged date : UTC 2023-04-28 20:59:36<br>
Color range : Limited<br>
Color primaries : BT.709<br>
Transfer characteristics : BT.709<br>
Matrix coefficients : BT.709<br>
<br>
Audio<br>
ID : 2<br>
Format : AAC<br>
Format/Info : Advanced Audio Codec<br>
Format profile : LC<br>
Codec ID : 40<br>
Duration : 4 min 16 s<br>
Source duration : 4 min 16 s<br>
Bit rate mode : Variable<br>
Bit rate : 221 kb/s<br>
Maximum bit rate : 527 kb/s<br>
Channel(s) : 2 channels<br>
Channel positions : Front: L R<br>
Sampling rate : 48.0 kHz<br>
Frame rate : 46.875 FPS (1024 spf)<br>
Compression mode : Lossy<br>
Stream size : 6.75 MiB (1%)<br>
Source stream size : 6.76 MiB (1%)<br>
Language : English<br>
Encoded date : UTC 2023-04-28 20:59:35<br>
Tagged date : UTC 2023-04-28 20:59:35</div>
</div><br>
<img src="https://i.imgur.com/qD6g3Ec.png" class="bbCodeImage LbImage" alt="[​IMG]" data-url="https://i.imgur.com/qD6g3Ec.png" style=""><br>
<div class="bbCodeBlock bbCodeVfcHH HiddenContent">
<div class="attribution type">Hidden Content:</div>
<blockquote>You must either reply or click 'Like' to see the hidden information contained here.</blockquote>
</div></div>
<div class="messageTextEndMarker">&nbsp;</div>
</blockquote>
</article>]]></description>
                <author><![CDATA[SUPREME]]></author>
                </item>

                
                <item>
                <title><![CDATA[【MASTER &amp; MASTER RIP】MASTER - 빌리 (Billlie) - EUNOIA [Master] [4K - H.264/AAC]]]></title>
                <link><![CDATA[https://sharemania.us/threads/%EB%B9%8C%EB%A6%AC-billlie-eunoia-master-4k-h-264-aac.220301/]]></link>
                <description><![CDATA[<article>
<blockquote class="messageText SelectQuoteContainer ugc baseHtml">
<div style="text-align: center"><b><span style="font-size: 10px"><img src="https://i.imgur.com/HD5KzsN.gif" class="bbCodeImage LbImage" alt="[​IMG]" data-url="https://i.imgur.com/HD5KzsN.gif" style=""> <br>
MD5 Checksum:</span></b> <i><span style="font-size: 10px">C982D12249797BA6132ED0AA3A35E94F</span></i><br>
​</div>
<div class="ToggleTriggerAnchor bbCodeSpoilerContainer">
<button type="button" class="button bbCodeSpoilerButton ToggleTrigger Tooltip JsOnly" data-target="> .SpoilerTarget"><span>Spoiler: <span class="SpoilerTitle">MediaInfo</span></span></button>
<div class="SpoilerTarget bbCodeSpoilerText">
<div class="bbCodeBlock bbCodeCode">
<div class="type">Code:</div>
<pre>Format                                   : MPEG-4
Format profile                           : Base Media / Version 2
Codec ID                                 : mp42 (mp42/mp41)
File size                                : 2.69 GiB
Duration                                 : 4 min 47 s
Overall bit rate mode                    : Variable
Overall bit rate                         : 80.3 Mb/s
Encoded date                             : UTC 2023-03-25 17:02:26
Tagged date                              : UTC 2023-03-25 17:17:28
TIM                                      : 00:00:00:00
TSC                                      : 24000
TSZ                                      : 1001

Video
ID                                       : 1
Format                                   : AVC
Format/Info                              : Advanced Video Codec
Format profile                           : Main@L5.1
Format settings                          : CABAC / 4 Ref Frames
Format settings, CABAC                   : Yes
Format settings, Reference frames        : 4 frames
Format settings, GOP                     : M=4, N=23
Codec ID                                 : avc1
Codec ID/Info                            : Advanced Video Coding
Duration                                 : 4 min 47 s
Bit rate mode                            : Constant
Bit rate                                 : 80.0 Mb/s
Width                                    : 3 840 pixels
Height                                   : 2 160 pixels
Display aspect ratio                     : 16:9
Frame rate mode                          : Constant
Frame rate                               : 23.976 (24000/1001) FPS
Color space                              : YUV
Chroma subsampling                       : 4:2:0
Bit depth                                : 8 bits
Scan type                                : Progressive
Bits/(Pixel*Frame)                       : 0.402
Stream size                              : 2.68 GiB (100%)
Language                                 : English
Encoded date                             : UTC 2023-03-25 17:02:38
Tagged date                              : UTC 2023-03-25 17:02:38
Color range                              : Limited
Color primaries                          : BT.709
Transfer characteristics                 : BT.709
Matrix coefficients                      : BT.709
Codec configuration box                  : avcC

Audio
ID                                       : 2
Format                                   : AAC LC
Format/Info                              : Advanced Audio Codec Low Complexity
Codec ID                                 : mp4a-40-2
Duration                                 : 4 min 47 s
Source duration                          : 4 min 47 s
Bit rate mode                            : Variable
Bit rate                                 : 317 kb/s
Maximum bit rate                         : 373 kb/s
Channel(s)                               : 2 channels
Channel layout                           : L R
Sampling rate                            : 48.0 kHz
Frame rate                               : 46.875 FPS (1024 SPF)
Compression mode                         : Lossy
Stream size                              : 10.9 MiB (0%)
Source stream size                       : 10.9 MiB (0%)
Language                                 : English
Encoded date                             : UTC 2023-03-25 17:02:33
Tagged date                              : UTC 2023-03-25 17:02:33</pre>
</div></div>
</div>
<div class="ToggleTriggerAnchor bbCodeSpoilerContainer">
<button type="button" class="button bbCodeSpoilerButton ToggleTrigger Tooltip JsOnly" data-target="> .SpoilerTarget"><span>Spoiler: <span class="SpoilerTitle">FFPROBE</span></span></button>
<div class="SpoilerTarget bbCodeSpoilerText">
<div class="bbCodeBlock bbCodeCode">
<div class="type">Code:</div>
<pre>  Metadata:
    major_brand     : mp42
    minor_version   : 0
    compatible_brands: mp42mp41
    creation_time   : 2023-03-25T17:02:26.000000Z
  Duration: 00:04:47.66, start: 0.000000, bitrate: 80273 kb/s
  Stream #0:0[0x2](eng): Audio: aac (mp4a / 0x6134706D), 48000 Hz, stereo, fltp, 317 kb/s (default)
    Metadata:
      creation_time   : 2023-03-25T17:02:33.000000Z
      handler_name    : #Mainconcept MP4 Sound Media Handler
      vendor_id       : [0][0][0][0]
  Stream #0:1[0x1](eng): Video: h264 (Main) (avc1 / 0x31637661), yuv420p(tv, bt709, progressive), 3840x2160, 79958 kb/s, 23.98 fps, 23.98 tbr, 24k tbn (default)
    Metadata:
      creation_time   : 2023-03-25T17:02:38.000000Z
      handler_name    : ?Mainconcept Video Media Handler
      vendor_id       : [0][0][0][0]
      encoder         : AVC Coding</pre>
</div></div>
</div><br>
<br>
<div style="text-align: center"><div data-s9e-mediaembed="youtube" style="display:inline-block;width:100%;max-width:640px"><div style="overflow:hidden;position:relative;padding-bottom:56.25%"><iframe allowfullscreen="" scrolling="no" style="background:url(https://i.ytimg.com/vi/MVjQIQGqNFM/hqdefault.jpg) 50% 50% / cover;border:0;height:100%;left:0;position:absolute;width:100%" src="https://www.youtube.com/embed/MVjQIQGqNFM"></iframe></div></div><br>
<br>
<br>
<div class="bbCodeBlock bbCodeQuote">
<aside>
<blockquote class="quoteContainer"><div class="quote">hyung_z</div><div class="quoteExpand">Click to expand...</div></blockquote>
</aside>
</div>
<div class="bbCodeBlock bbCodeVfcHH HiddenContent">
<div class="attribution type">Hidden Content:</div>
<blockquote>You must either reply or click 'Like' to see the hidden information contained here.</blockquote>
</div></div>
<div class="messageTextEndMarker">&nbsp;</div>
</blockquote>
</article>]]></description>
                <author><![CDATA[hyung_z]]></author>
                </item>

                </channel></rss>